<svg xmlns="http://www.w3.org/2000/svg" viewBox="0 0 107.7 27.27"><defs><style>.cls-1{opacity:0.8;}.cls-2{fill:#fff;}</style></defs><g class="cls-1"><path class="cls-2" d="M92.66,16.69c0,.7,0,1.41,0,2.11C92.68,21,93.78,22,96,22s3.48-1,3.52-3.2c0-.45,0-.9,0-1.35.05-.74-.48-.53-.86-.54s-.89-.17-.84.56a10.12,10.12,0,0,1,0,1.77.86.86,0,0,1-.86.86h-.1a.76.76,0,0,1-.7-.95c0-1.69,0-3.38,0-5.06,0-.51.19-.61.64-.6,1.09,0,2.19,0,3.28,0,.63,0,.82.15.81.8,0,1.69,0,3.38,0,5.06A2.62,2.62,0,0,0,103.24,22c1.9.35,3.59-.2,4.19-1.39a2.87,2.87,0,0,0,.16-.39,7.52,7.52,0,0,0,.26-2.76c0-.77-.65-.42-1-.47s-.75-.09-.72.5a12.3,12.3,0,0,1,0,1.68.91.91,0,0,1-.82,1H105c-.66-.06-.67-.58-.68-1.07,0-1.18,0-2.36,0-3.55,0-1.93,0-1.93,1.94-2h.34a.32.32,0,0,0,.32-.31c.25-1,0-1.37-1-1.37a5.63,5.63,0,0,0-.76,0c-.61.08-.88-.11-.82-.77a19.31,19.31,0,0,0,0-1.94c0-1.36.19-1.2-1.28-1.24a.7.7,0,0,0-.92.75,4.8,4.8,0,0,1-.32,1.3,2.52,2.52,0,0,1-2.73,1.9c-.76,0-1.52,0-2.27,0a.53.53,0,0,1-.68-.66c0-.9,0-1.8,0-2.7,0-.21.07-.53-.24-.55a6,6,0,0,0-1.67,0c-.43.09-.25.63-.33,1-.32,1.26-.67,2.51-2.15,2.84-.87.19-.46.81-.53,1.26s.36.54.72.5c.57-.07.72.18.69.72,0,.81,0,1.63,0,2.45" transform="translate(-0.18 -0.77)"/><path class="cls-2" d="M48.41,15.39,47,11.07l-.18,0-1.41,4.3h3Zm6.39,4.48c1.09-.07.6.75.7,1.22.13.63-.28.67-.75.66-1,0-2.08,0-3.11,0s-2.13,0-3.2,0c-.67,0-.66-.38-.61-.81s-.31-1,.6-1.08c1.31,0,1.27-.11,1-1.4a1.22,1.22,0,0,0-1.56-1.21c-.58.09-1.18,0-1.76,0S45,17,44.77,17.45a4.13,4.13,0,0,0-.53,1.84c0,.74.67.53,1.08.56s.81.11.79.75c0,1.14,0,1.14-1.13,1.15-1.46,0-2.92,0-4.38,0-.49,0-.8-.12-.67-.65s-.44-1.25.6-1.22,1.22-.65,1.47-1.36c1.12-3.33,2.25-6.65,3.32-10a1,1,0,0,1,1.09-.86h.09a18.54,18.54,0,0,0,2.52,0,.9.9,0,0,1,1.06.71v.06c1,3.21,2.12,6.4,3.19,9.6.12.35.24.69.38,1a1.12,1.12,0,0,0,1.16.8h0Z" transform="translate(-0.18 -0.77)"/><path class="cls-2" d="M75,19.23a7.87,7.87,0,0,0,0-4.87,1.3,1.3,0,0,0-1.3-1,1.36,1.36,0,0,0-1.31,1,6.16,6.16,0,0,0-.35,2.4,6.5,6.5,0,0,0,.34,2.48,1.39,1.39,0,0,0,1.31,1,1.31,1.31,0,0,0,1.3-1m3.68-5a7.58,7.58,0,0,1,0,5,4.12,4.12,0,0,1-7,1.49c-.06-.06-.12-.11-.29-.24-.17,1.45-1.21,1.25-2.18,1.27-.62,0-.73-.22-.73-.78,0-3.43,0-6.86,0-10.29,0-1.17,0-1.23-1.21-1.29-.74,0-.48-.55-.5-.9s-.14-.82.52-.81c1.37,0,2.75,0,4.12,0,.51,0,.6.22.59.66,0,1.45,0,2.9,0,4.6a3.84,3.84,0,0,1,6.63,1.24" transform="translate(-0.18 -0.77)"/><path class="cls-2" d="M63.2,19.26a6.17,6.17,0,0,0,.36-2.48,6,6,0,0,0-.36-2.48,1.35,1.35,0,0,0-1.26-.95,1.28,1.28,0,0,0-1.32,1,7.72,7.72,0,0,0,0,4.95,1.29,1.29,0,0,0,1.25,1,1.36,1.36,0,0,0,1.33-1M67,14.66a8.29,8.29,0,0,1,.14,3.6c-.29,1.67-1,3.08-2.78,3.57a4.06,4.06,0,0,1-4.63-1.26.54.54,0,0,0-.3.4,1,1,0,0,1-1.23.8h0c-1.46,0-1.47,0-1.47-1.48q0-4.76,0-9.53c0-1.22,0-1.27-1.24-1.35-.74,0-.47-.55-.5-.91s-.12-.81.53-.8q2.06,0,4.12,0c.52,0,.59.25.59.68,0,1.29,0,2.59,0,3.88,0,.16,0,.32,0,.63a4.25,4.25,0,0,1,2.64-1.35A4,4,0,0,1,67,14.66" transform="translate(-0.18 -0.77)"/><path class="cls-2" d="M87.07,19.12a8.64,8.64,0,0,0,.24-2.34c0-.5,0-1-.08-1.51a4.15,4.15,0,0,0-.14-.74,1.48,1.48,0,0,0-1.52-1.3,1.44,1.44,0,0,0-1.45,1.28,10.28,10.28,0,0,0,0,4.6,1.42,1.42,0,0,0,1.46,1.26,1.45,1.45,0,0,0,1.49-1.23m-.44-7.53c3,.49,4.64,2.65,4.37,5.92C90.76,20.28,88.67,22,85.61,22c-4.44,0-6.23-3.55-5.16-7.16.71-2.42,3.3-3.76,6.18-3.29" transform="translate(-0.18 -0.77)"/><path class="cls-2" d="M15.4.77H1.35C.2.77.2.77.19,2V4.07c0,1.28,0,1.28,1.31,1.28H27.67c1.39,0,1.89.48,1.9,1.87,0,1.72,0,3.43,0,5.15,0,3.07,0,6.13,0,9.2,0,1.32-.53,1.88-1.73,1.88H6.46a1.52,1.52,0,0,1-1.74-1.77q0-2.74,0-5.49A1.56,1.56,0,0,1,6.5,14.37c1.15,0,2.3,0,3.45,0,4.71,0,9.43,0,14.14,0,.73,0,1-.21,1-1a17,17,0,0,1,0-2.45c.07-.87-.26-1.1-1.1-1.1-6.31,0-12.62,0-18.93,0A4.47,4.47,0,0,0,.19,14.74q0,4.14,0,8.27a4.65,4.65,0,0,0,5,5h24A4.59,4.59,0,0,0,34,23.1q0-8.69,0-17.39C34,2.63,32.19.78,29.11.78H15.4" transform="translate(-0.18 -0.77)"/></g></svg>