<svg viewBox="0 0 183.28 53.83" xmlns="http://www.w3.org/2000/svg">
    <defs>
        <style>.cls-1{fill:#e2dee5;}.cls-2{fill:#fff;}</style>
    </defs>
    <path class="cls-1" d="M155.34,15.9A13.25,13.25,0,1,1,168.6,29.16,13.25,13.25,0,0,1,155.34,15.9Zm28.22,0a15,15,0,1,0-15,15,15,15,0,0,0,15-15Z" transform="translate(-0.28 -0.94)" />
    <path class="cls-1" d="M142.44,33.15H133.5c-.39,0-.45.06-.45.44v15.1c0,.34.09.44.44.44h3.05a.36.36,0,0,0,.44-.45V36.59c0-.33,0-.33.34-.33h5.82c.24,0,.32.06.32.31q0,6,0,12c0,.47.08.55.56.55h2.87c.43,0,.5-.08.5-.51V37a1.08,1.08,0,0,1,0-.67,1,1,0,0,1,.69-.05,16.92,16.92,0,0,1,3.44.15,2.51,2.51,0,0,1,1.46.83,3.47,3.47,0,0,1,.71,2.28c0,3,0,6.07,0,9.1a.42.42,0,0,0,.49.51h3a.36.36,0,0,0,.44-.44V39.1a7,7,0,0,0-.31-2,5,5,0,0,0-1.68-2.51,6.88,6.88,0,0,0-4.33-1.4c-3,0-5.93,0-8.89,0" transform="translate(-0.28 -0.94)" />
    <path class="cls-1" d="M84.19,37.24V48.67c0,.36.1.46.45.46h3c.37,0,.45-.09.45-.46V36.57c0-.21.05-.28.27-.27,1,0,2.08,0,3.13,0a5.39,5.39,0,0,1,1.2.11,2.54,2.54,0,0,1,1.71,1.13A4.15,4.15,0,0,1,95,39.74c0,3,0,5.93,0,8.89a.42.42,0,0,0,.5.49h2.89c.47,0,.54-.07.54-.53v-9a8.65,8.65,0,0,0-.27-2.29,5.06,5.06,0,0,0-2.73-3.35,8,8,0,0,0-3.5-.76c-1.34,0-2.69,0-4,0-.23,0-.28-.06-.28-.29,0-2.35,0-4.7,0-7.06a.33.33,0,0,0-.39-.41H84.57a.33.33,0,0,0-.39.42V37.24" transform="translate(-0.28 -0.94)" />
    <path class="cls-1" d="M70.07,40.73c0-1.42,0-2.84,0-4.26,0-.24,0-.33.31-.32.95,0,1.89,0,2.84,0a3.61,3.61,0,0,1,2.7,1.16A4.31,4.31,0,0,1,76.8,39,9.21,9.21,0,0,1,77,42.21a4.94,4.94,0,0,1-.86,2.72,2.76,2.76,0,0,1-2.06,1.15,7.45,7.45,0,0,1-3.21-.47l-.19-.09a.81.81,0,0,1-.65-1c0-1.25,0-2.5,0-3.75h0Zm-.15,14a.72.72,0,0,0,.16-.5c0-1.78,0-3.55,0-5.32,0-.19,0-.24.22-.15a5.76,5.76,0,0,0,.82.28,10.21,10.21,0,0,0,2,.32,9,9,0,0,0,2.83-.14,5.9,5.9,0,0,0,3.15-1.9,7.52,7.52,0,0,0,1.27-2.1A10.3,10.3,0,0,0,81,42a9.66,9.66,0,0,0-.28-3.11,7.46,7.46,0,0,0-2.54-4,7.56,7.56,0,0,0-4.75-1.74c-1.66,0-3.34,0-5,0a3.67,3.67,0,0,0-.64,0,2,2,0,0,0-1.67,1.91V54.42a.36.36,0,0,0,.16.35h3.61Z" transform="translate(-0.28 -0.94)" />
    <path class="cls-1" d="M112.57,44.19V46a.17.17,0,0,1-.11.21h-.09c-1.21,0-2.43,0-3.64,0a3.86,3.86,0,0,1-1.89-.49,2.13,2.13,0,0,1-1.09-1.59,2.16,2.16,0,0,1,1.53-2.42,6.23,6.23,0,0,1,2.61-.22,8.16,8.16,0,0,1,2,.37l.6.22a.21.21,0,0,1,.13.25v1.83m3.83-1.85V38.1a5.79,5.79,0,0,0-.1-1.17,4.63,4.63,0,0,0-2.41-3.25,8.43,8.43,0,0,0-3.87-.94,15.36,15.36,0,0,0-3,.2,11.22,11.22,0,0,0-3.33,1,.52.52,0,0,0-.24.84l.88,1.6a.5.5,0,0,0,.8.26,8,8,0,0,1,1.65-.63,12,12,0,0,1,2.05-.28,5.8,5.8,0,0,1,1.8.12,2.31,2.31,0,0,1,1.85,1.82,7.05,7.05,0,0,1,.07,1.52c0,.13-.06.13-.16.09a10.6,10.6,0,0,0-3.14-.58,9.79,9.79,0,0,0-2.21.1A7.78,7.78,0,0,0,103.79,40a4.68,4.68,0,0,0-1.5,1.59,5,5,0,0,0-.51,3.29,4.41,4.41,0,0,0,2.6,3.4,9.66,9.66,0,0,0,3.91.81c.64,0,1.28,0,1.91,0,1.43,0,2.86.08,4.28-.06A2.06,2.06,0,0,0,116.39,47c0-1.56,0-3.12,0-4.68" transform="translate(-0.28 -0.94)" />
    <path class="cls-1" d="M119.65,41.92v6.74c0,.39.08.47.46.47h3c.41,0,.49-.09.49-.5V37.9a1,1,0,0,1,.89-1.13h5a.43.43,0,0,0,.53-.52V33.67c0-.45-.12-.57-.56-.57h-7.49a2.78,2.78,0,0,0-.76.1,2,2,0,0,0-1.52,2c0,2.25,0,4.5,0,6.74" transform="translate(-0.28 -0.94)" />
    <path class="cls-2" d="M55.23,46a3.39,3.39,0,0,1-2.74-1.19A4.28,4.28,0,0,1,51.58,43a7.72,7.72,0,0,1-.21-2.08,6.46,6.46,0,0,1,.69-2.9,3.36,3.36,0,0,1,2.61-1.78,4,4,0,0,1,2.13.26,3.28,3.28,0,0,1,1.5,1.27,5.79,5.79,0,0,1,.83,2.83,7.44,7.44,0,0,1-.33,2.8A4,4,0,0,1,57.85,45a3.39,3.39,0,0,1-2.62,1m-7.85-4.8a5.91,5.91,0,0,0,.07,1.2,9,9,0,0,0,.25,1.29,7.38,7.38,0,0,0,6.86,5.71,8.72,8.72,0,0,0,2-.09,8.56,8.56,0,0,0,2.23-.68,7.08,7.08,0,0,0,2.6-2.07A7.94,7.94,0,0,0,62.74,44a9.8,9.8,0,0,0,.4-2.36,10.59,10.59,0,0,0-.08-1.94,8.68,8.68,0,0,0-.82-2.78,7,7,0,0,0-1.72-2.26,8.07,8.07,0,0,0-1.45-1,8.28,8.28,0,0,0-3.36-.88,7.94,7.94,0,0,0-1.86.11,7.77,7.77,0,0,0-2.77,1,7.24,7.24,0,0,0-2.67,2.81,9.23,9.23,0,0,0-1,4.56" transform="translate(-0.28 -0.94)" />
    <path class="cls-2" d="M35.59,42v6.8a.31.31,0,0,0,.25.36h3.28a.33.33,0,0,0,.4-.41V37.93a1.65,1.65,0,0,1,.09-.55,1,1,0,0,1,1-.61h4.86a.42.42,0,0,0,.5-.51q0-1.35,0-2.69a.41.41,0,0,0-.33-.48H37.94a3.34,3.34,0,0,0-.61,0,2,2,0,0,0-1.74,2c0,2.26,0,4.52,0,6.77" transform="translate(-0.28 -0.94)" />
    <path class="cls-2" d="M25.17,39.62H21.79c-.2,0-.24-.07-.21-.24a5.65,5.65,0,0,1,.56-1.76,3.2,3.2,0,0,1,2.45-1.73,3.54,3.54,0,0,1,2.58.56,3.45,3.45,0,0,1,1.39,2.08c.07.28.13.57.2.85s0,.24-.2.24H25.17m1.76,2.69h5.19a.34.34,0,0,0,.4-.24,1.49,1.49,0,0,0,.07-.42c0-.36,0-.72,0-1.08A10.34,10.34,0,0,0,32.37,39a8.41,8.41,0,0,0-1.66-3.79,6.56,6.56,0,0,0-2.15-1.76,7.44,7.44,0,0,0-2.94-.72,8,8,0,0,0-2.2.2,7,7,0,0,0-3.06,1.51,7.56,7.56,0,0,0-2.08,2.84,10,10,0,0,0-.73,3.52c0,.36,0,.72,0,1.08a9.54,9.54,0,0,0,.52,2.62,6.94,6.94,0,0,0,3,3.81,8,8,0,0,0,3.65,1.1A10.82,10.82,0,0,0,27,49.34a9.49,9.49,0,0,0,3-.9,9.34,9.34,0,0,0,1.59-1c.32-.25.35-.36.06-.64-.61-.58-1.25-1.14-1.86-1.72A.44.44,0,0,0,29,45a5.58,5.58,0,0,1-4.43,1,3.58,3.58,0,0,1-2.5-1.84,4.1,4.1,0,0,1-.48-1.56c0-.33-.05-.33.27-.33h5.09" transform="translate(-0.28 -0.94)" />
    <path class="cls-2" d="M.28,33.62c.09,0,0,.1.07.15Q1.2,35.88,2,38l2,5.11,1.65,4.15a3.67,3.67,0,0,0,1,1.6,2.56,2.56,0,0,0,2,.56A2.76,2.76,0,0,0,11,47.57l1.09-2.73,1.65-4.14,2.07-5.24c.26-.66.53-1.32.79-2,.1-.26,0-.37-.26-.37H12.83a.34.34,0,0,0-.35.21,3.22,3.22,0,0,0-.12.33l-1.23,3.51L9.09,43c-.2.58-.39,1.16-.6,1.77-.18-.49-.34-.93-.5-1.38L5.71,36.92q-.62-1.78-1.24-3.56a.33.33,0,0,0-.36-.26H.55a.43.43,0,0,0-.27.05v.47Z" transform="translate(-0.28 -0.94)" />
</svg>