<svg 
 xmlns="http://www.w3.org/2000/svg"
 width="87px" height="88px">
<path fill-rule="evenodd"  fill="rgb(109, 98, 120)"
 d="M0.788,48.725 L3.483,48.725 L3.483,86.468 L0.788,86.468 L0.788,48.725 Z"/>
<path fill-rule="evenodd"  stroke="rgb(109, 98, 120)" stroke-width="2px" stroke-linecap="butt" stroke-linejoin="miter" fill="none"
 d="M27.741,68.945 C27.741,68.945 41.217,68.945 49.304,68.945 C57.389,68.945 70.866,60.857 73.561,59.509 C76.257,58.161 80.973,57.487 82.995,60.857 C85.017,64.227 83.669,66.923 81.647,68.271 C79.626,69.619 54.694,83.772 42.565,83.772 C30.436,83.772 2.136,77.706 2.136,77.706 "/>
<path fill-rule="evenodd"  stroke="rgb(109, 98, 120)" stroke-width="2px" stroke-linecap="butt" stroke-linejoin="miter" fill="none"
 d="M45.261,68.945 C45.261,68.945 50.651,68.945 50.651,64.227 C50.651,59.509 46.608,59.509 45.261,59.509 C43.913,59.509 29.089,59.509 27.741,59.509 C26.393,59.509 23.024,54.117 18.307,54.117 C10.914,54.117 2.136,56.139 2.136,56.139 "/>
<path fill-rule="evenodd"  fill-opacity="0" fill="rgb(0, 0, 0)"
 d="M2.136,62.205 L2.136,35.246 L82.995,35.246 L82.995,62.205 L2.136,62.205 ZM2.136,0.199 L82.995,0.199 L82.995,27.158 L2.136,27.158 L2.136,0.199 Z"/>
<path fill-rule="evenodd"  stroke="rgb(109, 98, 120)" stroke-width="2px" stroke-linecap="butt" stroke-linejoin="miter" fill="none"
 d="M42.565,51.421 C39.870,51.421 12.917,33.897 12.917,17.722 C12.917,5.590 19.655,2.895 25.720,2.895 C35.153,2.895 42.565,13.678 42.565,16.375 "/>
<path fill-rule="evenodd"  stroke="rgb(109, 98, 120)" stroke-width="2px" stroke-linecap="butt" stroke-linejoin="miter" fill="none"
 d="M42.565,51.421 C45.261,51.421 72.214,33.897 72.214,17.722 C72.214,5.590 65.475,2.895 59.411,2.895 C49.977,2.895 42.565,13.678 42.565,16.375 "/>
<path fill-rule="evenodd"  stroke="rgb(109, 98, 120)" stroke-width="2px" stroke-linecap="square" stroke-linejoin="round" fill="none"
 d="M82.995,31.202 C82.995,31.202 70.866,31.202 60.085,31.202 C49.304,31.202 53.346,20.418 49.304,20.418 C45.261,20.418 46.608,36.593 42.565,36.593 C38.522,36.593 39.870,23.788 35.827,23.788 C31.784,23.788 34.479,31.202 23.698,31.202 C12.917,31.202 2.136,31.202 2.136,31.202 "/>
</svg>