<svg 
 xmlns="http://www.w3.org/2000/svg"
 width="114px" height="103px">
<path fill-rule="evenodd"  stroke="rgb(109, 98, 120)" stroke-width="2px" stroke-linecap="butt" stroke-linejoin="miter" fill="none"
 d="M66.327,100.772 L69.022,19.895 L82.499,19.895 L85.194,100.772 L66.327,100.772 ZM39.373,52.246 L63.631,52.246 L63.631,100.772 L39.373,100.772 L39.373,52.246 ZM16.463,69.772 L16.497,69.772 C16.844,64.503 21.215,60.334 26.571,60.334 C31.926,60.334 36.297,64.503 36.644,69.772 L36.678,69.772 L36.678,100.772 L16.463,100.772 L16.463,69.772 Z"/>
<path fill-rule="evenodd"  fill="rgb(109, 98, 120)"
 d="M103.545,9.334 C100.103,9.878 97.339,9.686 88.947,8.656 C88.185,8.562 87.617,8.493 87.058,8.427 C80.220,7.623 77.108,10.369 77.108,17.199 L74.413,17.199 C74.413,8.751 78.937,4.757 87.373,5.750 C87.937,5.817 88.509,5.886 89.275,5.979 C97.368,6.973 100.038,7.159 103.124,6.671 C106.917,6.071 109.139,4.288 110.177,0.653 L112.769,1.394 C111.428,6.089 108.327,8.577 103.545,9.334 ZM62.284,63.030 L69.022,63.030 L69.022,65.725 L62.284,65.725 L62.284,63.030 ZM44.764,84.597 L58.241,84.597 L58.241,87.293 L44.764,87.293 L44.764,84.597 ZM44.764,79.205 L58.241,79.205 L58.241,81.901 L44.764,81.901 L44.764,79.205 ZM52.850,73.813 L58.241,73.813 L58.241,76.509 L52.850,76.509 L52.850,73.813 ZM52.850,68.421 L58.241,68.421 L58.241,71.117 L52.850,71.117 L52.850,68.421 ZM52.850,63.030 L58.241,63.030 L58.241,65.725 L52.850,65.725 L52.850,63.030 ZM52.850,57.638 L58.241,57.638 L58.241,60.334 L52.850,60.334 L52.850,57.638 ZM44.764,73.813 L50.155,73.813 L50.155,76.509 L44.764,76.509 L44.764,73.813 ZM44.764,68.421 L50.155,68.421 L50.155,71.117 L44.764,71.117 L44.764,68.421 ZM44.764,63.030 L50.155,63.030 L50.155,65.725 L44.764,65.725 L44.764,63.030 ZM44.764,57.638 L50.155,57.638 L50.155,60.334 L44.764,60.334 L44.764,57.638 ZM33.983,76.509 L40.721,76.509 L40.721,79.205 L33.983,79.205 L33.983,76.509 ZM33.983,71.117 L40.721,71.117 L40.721,73.813 L33.983,73.813 L33.983,71.117 ZM13.768,80.553 L13.768,98.076 L91.932,98.076 L91.932,100.772 L13.768,100.772 L11.072,100.772 L8.377,100.772 L5.682,100.772 L0.292,100.772 L0.292,98.076 L5.682,98.076 L5.682,80.553 C5.682,75.342 9.906,71.117 15.116,71.117 L17.811,71.117 L17.811,73.813 L15.116,73.813 C11.394,73.813 8.377,76.830 8.377,80.553 L8.377,98.076 L11.072,98.076 L11.072,80.553 C11.072,78.320 12.883,76.509 15.116,76.509 L17.811,76.509 L17.811,79.205 L15.116,79.205 C14.371,79.205 13.768,79.808 13.768,80.553 Z"/>
</svg>