<svg
 xmlns="http://www.w3.org/2000/svg"
 xmlns:xlink="http://www.w3.org/1999/xlink"
 width="36px" height="65px">
<path fill-rule="evenodd"  fill-opacity="0.129" fill="rgb(0, 0, 0)"
 d="M2.248,58.108 C2.248,54.313 9.300,51.237 17.998,51.237 C26.697,51.237 33.748,54.313 33.748,58.108 C33.748,61.902 26.697,64.978 17.998,64.978 C9.300,64.978 2.248,61.902 2.248,58.108 Z"/>
<path fill-rule="evenodd"  fill="rgb(228, 129, 195)"
 d="M17.998,46.963 C11.398,46.963 -0.002,28.456 -0.002,18.338 C-0.002,8.220 8.057,0.018 17.998,0.018 C27.939,0.018 35.998,8.220 35.998,18.338 C35.998,28.456 24.598,46.963 17.998,46.963 ZM17.833,11.467 C14.104,11.467 11.082,14.544 11.082,18.338 C11.082,22.132 14.104,25.208 17.833,25.208 C21.561,25.208 24.583,22.132 24.583,18.338 C24.583,14.544 21.561,11.467 17.833,11.467 Z"/>
<path fill-rule="evenodd"  fill="rgb(48, 47, 52)"
 d="M11.082,18.338 C11.082,14.544 14.104,11.467 17.833,11.467 C21.561,11.467 24.583,14.544 24.583,18.338 C24.583,22.132 21.561,25.208 17.833,25.208 C14.104,25.208 11.082,22.132 11.082,18.338 Z"/>
</svg>